<svg width="176" height="176" viewBox="0 0 176 176" fill="none" xmlns="http://www.w3.org/2000/svg">
<path d="M143 11H165V33H143V11ZM143 44H165V66H143V44ZM110 11H132V33H110V11ZM110 44H132V66H110V44Z" fill="#CAD6E3"/>
<path d="M154 88V121H22V33H88V22H22C19.0826 22 16.2847 23.1589 14.2218 25.2218C12.1589 27.2847 11 30.0826 11 33V121C11 123.917 12.1589 126.715 14.2218 128.778C16.2847 130.841 19.0826 132 22 132H66V154H44V165H132V154H110V132H154C156.917 132 159.715 130.841 161.778 128.778C163.841 126.715 165 123.917 165 121V88H154ZM99 154H77V132H99V154Z" fill="#CAD6E3"/>
</svg>
