<svg width="124" height="124" viewBox="0 0 124 124" fill="none" xmlns="http://www.w3.org/2000/svg">
<path d="M77.5002 87.8335C76.4783 87.8335 75.4794 88.1365 74.6297 88.7042C73.7801 89.272 73.1178 90.0789 72.7268 91.023C72.3357 91.9671 72.2334 93.0059 72.4328 94.0081C72.6321 95.0104 73.1242 95.931 73.8468 96.6535C74.5693 97.3761 75.49 97.8682 76.4922 98.0676C77.4944 98.2669 78.5333 98.1646 79.4774 97.7735C80.4214 97.3825 81.2284 96.7203 81.7961 95.8706C82.3638 95.021 82.6668 94.022 82.6668 93.0002C82.6668 91.6299 82.1225 90.3157 81.1535 89.3468C80.1846 88.3778 78.8704 87.8335 77.5002 87.8335ZM46.5002 87.8335H31.0002C29.6299 87.8335 28.3157 88.3778 27.3468 89.3468C26.3778 90.3157 25.8335 91.6299 25.8335 93.0002C25.8335 94.3704 26.3778 95.6846 27.3468 96.6535C28.3157 97.6225 29.6299 98.1668 31.0002 98.1668H46.5002C47.8704 98.1668 49.1846 97.6225 50.1535 96.6535C51.1225 95.6846 51.6668 94.3704 51.6668 93.0002C51.6668 91.6299 51.1225 90.3157 50.1535 89.3468C49.1846 88.3778 47.8704 87.8335 46.5002 87.8335ZM93.0002 87.8335C91.9783 87.8335 90.9794 88.1365 90.1297 88.7042C89.2801 89.272 88.6178 90.0789 88.2268 91.023C87.8357 91.9671 87.7334 93.0059 87.9328 94.0081C88.1321 95.0104 88.6242 95.931 89.3468 96.6535C90.0693 97.3761 90.99 97.8682 91.9922 98.0676C92.9944 98.2669 94.0333 98.1646 94.9774 97.7735C95.9214 97.3825 96.7284 96.7203 97.2961 95.8706C97.8638 95.021 98.1668 94.022 98.1668 93.0002C98.1668 91.6299 97.6225 90.3157 96.6535 89.3468C95.6846 88.3778 94.3704 87.8335 93.0002 87.8335ZM77.5002 56.8335C76.4783 56.8335 75.4794 57.1365 74.6297 57.7042C73.7801 58.272 73.1178 59.0789 72.7268 60.023C72.3357 60.967 72.2334 62.0059 72.4328 63.0081C72.6321 64.0104 73.1242 64.931 73.8468 65.6535C74.5693 66.3761 75.49 66.8682 76.4922 67.0676C77.4944 67.2669 78.5333 67.1646 79.4774 66.7735C80.4214 66.3825 81.2284 65.7203 81.7961 64.8706C82.3638 64.021 82.6668 63.022 82.6668 62.0002C82.6668 60.6299 82.1225 59.3157 81.1535 58.3468C80.1846 57.3778 78.8704 56.8335 77.5002 56.8335ZM46.5002 56.8335H31.0002C29.6299 56.8335 28.3157 57.3778 27.3468 58.3468C26.3778 59.3157 25.8335 60.6299 25.8335 62.0002C25.8335 63.3704 26.3778 64.6846 27.3468 65.6535C28.3157 66.6225 29.6299 67.1668 31.0002 67.1668H46.5002C47.8704 67.1668 49.1846 66.6225 50.1535 65.6535C51.1225 64.6846 51.6668 63.3704 51.6668 62.0002C51.6668 60.6299 51.1225 59.3157 50.1535 58.3468C49.1846 57.3778 47.8704 56.8335 46.5002 56.8335ZM93.0002 25.8335C91.9783 25.8335 90.9794 26.1365 90.1297 26.7042C89.2801 27.272 88.6178 28.0789 88.2268 29.023C87.8357 29.9671 87.7334 31.0059 87.9328 32.0081C88.1321 33.0104 88.6242 33.931 89.3468 34.6535C90.0693 35.3761 90.99 35.8682 91.9922 36.0676C92.9944 36.2669 94.0333 36.1646 94.9774 35.7735C95.9214 35.3825 96.7284 34.7203 97.2961 33.8706C97.8638 33.021 98.1668 32.022 98.1668 31.0002C98.1668 29.6299 97.6225 28.3157 96.6535 27.3468C95.6846 26.3778 94.3704 25.8335 93.0002 25.8335ZM93.0002 56.8335C91.9783 56.8335 90.9794 57.1365 90.1297 57.7042C89.2801 58.272 88.6178 59.0789 88.2268 60.023C87.8357 60.967 87.7334 62.0059 87.9328 63.0081C88.1321 64.0104 88.6242 64.931 89.3468 65.6535C90.0693 66.3761 90.99 66.8682 91.9922 67.0676C92.9944 67.2669 94.0333 67.1646 94.9774 66.7735C95.9214 66.3825 96.7284 65.7203 97.2961 64.8706C97.8638 64.021 98.1668 63.022 98.1668 62.0002C98.1668 60.6299 97.6225 59.3157 96.6535 58.3468C95.6846 57.3778 94.3704 56.8335 93.0002 56.8335ZM113.667 25.8335C113.667 21.7226 112.034 17.7802 109.127 14.8733C106.22 11.9665 102.278 10.3335 98.1668 10.3335H25.8335C21.7226 10.3335 17.7802 11.9665 14.8733 14.8733C11.9665 17.7802 10.3335 21.7226 10.3335 25.8335V36.1668C10.3563 39.9904 11.7916 43.6707 14.3635 46.5002C11.7916 49.3296 10.3563 53.0099 10.3335 56.8335V67.1668C10.3563 70.9904 11.7916 74.6707 14.3635 77.5002C11.7916 80.3296 10.3563 84.0099 10.3335 87.8335V98.1668C10.3335 102.278 11.9665 106.22 14.8733 109.127C17.7802 112.034 21.7226 113.667 25.8335 113.667H98.1668C102.278 113.667 106.22 112.034 109.127 109.127C112.034 106.22 113.667 102.278 113.667 98.1668V87.8335C113.644 84.0099 112.209 80.3296 109.637 77.5002C112.209 74.6707 113.644 70.9904 113.667 67.1668V56.8335C113.644 53.0099 112.209 49.3296 109.637 46.5002C112.209 43.6707 113.644 39.9904 113.667 36.1668V25.8335ZM103.333 98.1668C103.333 99.5371 102.789 100.851 101.82 101.82C100.851 102.789 99.5371 103.333 98.1668 103.333H25.8335C24.4632 103.333 23.149 102.789 22.1801 101.82C21.2112 100.851 20.6668 99.5371 20.6668 98.1668V87.8335C20.6668 86.4632 21.2112 85.149 22.1801 84.1801C23.149 83.2112 24.4632 82.6668 25.8335 82.6668H98.1668C99.5371 82.6668 100.851 83.2112 101.82 84.1801C102.789 85.149 103.333 86.4632 103.333 87.8335V98.1668ZM103.333 67.1668C103.333 68.5371 102.789 69.8513 101.82 70.8202C100.851 71.7891 99.5371 72.3335 98.1668 72.3335H25.8335C24.4632 72.3335 23.149 71.7891 22.1801 70.8202C21.2112 69.8513 20.6668 68.5371 20.6668 67.1668V56.8335C20.6668 55.4632 21.2112 54.149 22.1801 53.1801C23.149 52.2112 24.4632 51.6668 25.8335 51.6668H98.1668C99.5371 51.6668 100.851 52.2112 101.82 53.1801C102.789 54.149 103.333 55.4632 103.333 56.8335V67.1668ZM103.333 36.1668C103.333 37.5371 102.789 38.8513 101.82 39.8202C100.851 40.7892 99.5371 41.3335 98.1668 41.3335H25.8335C24.4632 41.3335 23.149 40.7892 22.1801 39.8202C21.2112 38.8513 20.6668 37.5371 20.6668 36.1668V25.8335C20.6668 24.4632 21.2112 23.149 22.1801 22.1801C23.149 21.2112 24.4632 20.6668 25.8335 20.6668H98.1668C99.5371 20.6668 100.851 21.2112 101.82 22.1801C102.789 23.149 103.333 24.4632 103.333 25.8335V36.1668ZM77.5002 25.8335C76.4783 25.8335 75.4794 26.1365 74.6297 26.7042C73.7801 27.272 73.1178 28.0789 72.7268 29.023C72.3357 29.9671 72.2334 31.0059 72.4328 32.0081C72.6321 33.0104 73.1242 33.931 73.8468 34.6535C74.5693 35.3761 75.49 35.8682 76.4922 36.0676C77.4944 36.2669 78.5333 36.1646 79.4774 35.7735C80.4214 35.3825 81.2284 34.7203 81.7961 33.8706C82.3638 33.021 82.6668 32.022 82.6668 31.0002C82.6668 29.6299 82.1225 28.3157 81.1535 27.3468C80.1846 26.3778 78.8704 25.8335 77.5002 25.8335ZM46.5002 25.8335H31.0002C29.6299 25.8335 28.3157 26.3778 27.3468 27.3468C26.3778 28.3157 25.8335 29.6299 25.8335 31.0002C25.8335 32.3704 26.3778 33.6846 27.3468 34.6535C28.3157 35.6225 29.6299 36.1668 31.0002 36.1668H46.5002C47.8704 36.1668 49.1846 35.6225 50.1535 34.6535C51.1225 33.6846 51.6668 32.3704 51.6668 31.0002C51.6668 29.6299 51.1225 28.3157 50.1535 27.3468C49.1846 26.3778 47.8704 25.8335 46.5002 25.8335Z" fill="#CAD6E3"/>
</svg>
