<svg width="100" height="110" viewBox="0 0 100 110" fill="none" xmlns="http://www.w3.org/2000/svg">
<path d="M25 37.5L35 27.5L25 17.5L15 27.5L25 37.5ZM0 65V0H100V65H73.875C74.375 63.3333 74.7083 61.6667 74.875 60C75.0417 58.3333 75.0417 56.6667 74.875 55H90V10H10V55H25.125C24.9583 56.6667 24.9583 58.3333 25.125 60C25.2917 61.6667 25.625 63.3333 26.125 65H0ZM72.5 30C74.5833 30 76.355 29.2717 77.815 27.815C79.275 26.3583 80.0033 24.5867 80 22.5C79.9967 20.4133 79.2683 18.6433 77.815 17.19C76.3617 15.7367 74.59 15.0067 72.5 15C70.41 14.9933 68.64 15.7233 67.19 17.19C65.74 18.6567 65.01 20.4267 65 22.5C64.99 24.5733 65.72 26.345 67.19 27.815C68.66 29.285 70.43 30.0133 72.5 30ZM15 110V99.5C15 96.5833 15.8133 93.875 17.44 91.375C19.0667 88.875 21.2117 87 23.875 85.75C27.9583 83.8333 32.2083 82.3967 36.625 81.44C41.0417 80.4833 45.5 80.0033 50 80C54.5 79.9967 58.9583 80.4767 63.375 81.44C67.7917 82.4033 72.0417 83.84 76.125 85.75C78.7917 87 80.9383 88.875 82.565 91.375C84.1917 93.875 85.0033 96.5833 85 99.5V110H15ZM25 100H75V99.5C75 98.5 74.7083 97.5833 74.125 96.75C73.5417 95.9167 72.7917 95.2917 71.875 94.875C68.375 93.2917 64.7917 92.0833 61.125 91.25C57.4583 90.4167 53.75 90 50 90C46.25 90 42.5417 90.4167 38.875 91.25C35.2083 92.0833 31.625 93.2917 28.125 94.875C27.2083 95.2917 26.4583 95.9167 25.875 96.75C25.2917 97.5833 25 98.5 25 99.5V100ZM50 75C45.1667 75 41.0417 73.2917 37.625 69.875C34.2083 66.4583 32.5 62.3333 32.5 57.5C32.5 52.6667 34.2083 48.5417 37.625 45.125C41.0417 41.7083 45.1667 40 50 40C54.8333 40 58.9583 41.7083 62.375 45.125C65.7917 48.5417 67.5 52.6667 67.5 57.5C67.5 62.3333 65.7917 66.4583 62.375 69.875C58.9583 73.2917 54.8333 75 50 75ZM50 65C52.0833 65 53.855 64.2717 55.315 62.815C56.775 61.3583 57.5033 59.5867 57.5 57.5C57.4967 55.4133 56.7683 53.6433 55.315 52.19C53.8617 50.7367 52.09 50.0067 50 50C47.91 49.9933 46.14 50.7233 44.69 52.19C43.24 53.6567 42.51 55.4267 42.5 57.5C42.49 59.5733 43.22 61.345 44.69 62.815C46.16 64.285 47.93 65.0133 50 65Z" fill="#CAD6E3"/>
</svg>
